<svg xmlns="http://www.w3.org/2000/svg" viewBox="0 0 900 600" width="900" height="600">
  <!-- The three horizontal stripes of the flag -->
  <rect y="0" width="900" height="200" fill="#ED2024"/>
  <rect y="200" width="900" height="200" fill="#FFFFFF"/>
  <rect y="400" width="900" height="200" fill="#278E43"/>

  <!-- The central sun emblem -->
  <g transform="translate(450,300)">
    <!-- Central sun disk -->
    <circle r="80" fill="#FEBD11"/>
    <!-- The 21 rays of the sun -->
    <g>
      <polygon points="0,-110 15,-80 -15,-80" fill="#FEBD11" transform="rotate(0)"/>
      <polygon points="0,-110 15,-80 -15,-80" fill="#FEBD11" transform="rotate(17.14)"/>
      <polygon points="0,-110 15,-80 -15,-80" fill="#FEBD11" transform="rotate(34.28)"/>
      <polygon points="0,-110 15,-80 -15,-80" fill="#FEBD11" transform="rotate(51.42)"/>
      <polygon points="0,-110 15,-80 -15,-80" fill="#FEBD11" transform="rotate(68.56)"/>
      <polygon points="0,-110 15,-80 -15,-80" fill="#FEBD11" transform="rotate(85.7)"/>
      <polygon points="0,-110 15,-80 -15,-80" fill="#FEBD11" transform="rotate(102.84)"/>
      <polygon points="0,-110 15,-80 -15,-80" fill="#FEBD11" transform="rotate(120)"/>
      <polygon points="0,-110 15,-80 -15,-80" fill="#FEBD11" transform="rotate(137.14)"/>
      <polygon points="0,-110 15,-80 -15,-80" fill="#FEBD11" transform="rotate(154.28)"/>
      <polygon points="0,-110 15,-80 -15,-80" fill="#FEBD11" transform="rotate(171.42)"/>
      <polygon points="0,-110 15,-80 -15,-80" fill="#FEBD11" transform="rotate(188.56)"/>
      <polygon points="0,-110 15,-80 -15,-80" fill="#FEBD11" transform="rotate(205.7)"/>
      <polygon points="0,-110 15,-80 -15,-80" fill="#FEBD11" transform="rotate(222.84)"/>
      <polygon points="0,-110 15,-80 -15,-80" fill="#FEBD11" transform="rotate(240)"/>
      <polygon points="0,-110 15,-80 -15,-80" fill="#FEBD11" transform="rotate(257.14)"/>
      <polygon points="0,-110 15,-80 -15,-80" fill="#FEBD11" transform="rotate(274.28)"/>
      <polygon points="0,-110 15,-80 -15,-80" fill="#FEBD11" transform="rotate(291.42)"/>
      <polygon points="0,-110 15,-80 -15,-80" fill="#FEBD11" transform="rotate(308.56)"/>
      <polygon points="0,-110 15,-80 -15,-80" fill="#FEBD11" transform="rotate(325.7)"/>
      <polygon points="0,-110 15,-80 -15,-80" fill="#FEBD11" transform="rotate(342.84)"/>
    </g>
  </g>
</svg>
